# xmcd
#
# Track frame offsets:
#	183
#	12288
#	19343
#	38280
#	47855
#	56990
#	67298
#	82073
#	92833
#	101175
#	118590
#	126873
#	134908
#	146960
#
# Disc length: 2252 seconds
#
# Revision: 1
# Processed by: cddbd v1.4PL0 Copyright (c) Steve Scherf et al.
# Submitted via: EasyCDDAExtractor 5.1.0
#
DISCID=db08ca0e
DTITLE=Ora Sittner - Sings Sacha Argov
DYEAR=1900
DGENRE=Country
TTITLE0=Shir Eres
TTITLE1=Ba-Kerem
TTITLE2=Balada Al Hamoriko
TTITLE3=Shir Ha-Gadi
TTITLE4=Nachal Sheli
TTITLE5=Ha-Simla Hasgola
TTITLE6=Ze Lo Bishvili
TTITLE7=Dod Shemesh Veantena Gam
TTITLE8=Shir Prida Lakaitz
TTITLE9=Zamer Hamapuchit
TTITLE10=Ma Sheratziti
TTITLE11=Ha-Har Hayarok
TTITLE12=Zamer Ahava Lyam
TTITLE13=Konzertina Vegitara
EXTD=
EXTT0=
EXTT1=
EXTT2=
EXTT3=
EXTT4=
EXTT5=
EXTT6=
EXTT7=
EXTT8=
EXTT9=
EXTT10=
EXTT11=
EXTT12=
EXTT13=
PLAYORDER=
